# xmcd
# 
# Track frame offsets:
#     150
#     13735
#     28600
#     41130
#     55782
#     67402
#     80025
#     91952
#     104950
#     118247
#     130247
#     144202
#     157707
#     171340
#     185567
#     198857
#     212192
#     225367
#     240650
#     253732
#     269230
#     282847
#     296402
#     311260
# 
# Disc length: 4345
# 
# Revision: 1
# Processed by: cddbd v1.5.2PL0 Copyright (c) Steve Scherf et al.
# Submitted via: fre:ac v1.0.17
# 
DISCID=6a10f718
DTITLE=Harry James - Have Trumpet, Will Travel
DYEAR=0
DGENRE=Jazz
TTITLE0=Trumpet Blues and Cantabile
TTITLE1=Two O'Clock Jump
TTITLE2='Taint what you do
TTITLE3=You made me love you
TTITLE4=Ciribiribin
TTITLE5=Jubilee
TTITLE6=When we're alone
TTITLE7=Texas Chatter
TTITLE8=Boo-woo
TTITLE9=I want to be happy
TTITLE10=Life goes to a party
TTITLE11=Tuxedo Junction
TTITLE12=Exactly like you
TTITLE13=Melancholy mood
TTITLE14=All or nothing at all
TTITLE15=How high the moon
TTITLE16=Strictly instrumental
TTITLE17=Flatbush Flanagan
TTITLE18=I don't want to walk without you
TTITLE19=It's been a long, long time
TTITLE20=I've heard that song before
TTITLE21=I can't begin to tell you
TTITLE22=Music makers
TTITLE23=I'm beginning to see the light
EXTD=
EXTT0=
EXTT1=
EXTT2=
EXTT3=
EXTT4=
EXTT5=
EXTT6=
EXTT7=
EXTT8=
EXTT9=
EXTT10=
EXTT11=
EXTT12=
EXTT13=
EXTT14=
EXTT15=
EXTT16=
EXTT17=
EXTT18=
EXTT19=
EXTT20=
EXTT21=
EXTT22=
EXTT23=
PLAYORDER=
